<svg xmlns="http://www.w3.org/2000/svg" viewBox="0 0 551.3 100.15"><defs><style>.cls-1,.cls-2{fill:#ed1c24;}.cls-2{fill-rule:evenodd;}</style></defs><g id="Capa_2" data-name="Capa 2"><g id="Layer_2" data-name="Layer 2"><polygon class="cls-1" points="0 0.53 42.37 0.53 42.37 18.88 22.07 18.88 22.07 36.6 39.8 36.6 39.8 55.13 22.07 55.13 22.07 82.34 42.45 82.34 42.45 99.97 0 99.97 0 0.53 0 0.53"/><polygon class="cls-1" points="48.57 0.35 70.46 0.35 70.46 82.25 91.11 82.25 91.11 99.8 48.57 99.8 48.57 0.35 48.57 0.35"/><polygon class="cls-1" points="145.54 0 173.01 0 186.31 13.29 186.31 37.4 165.21 37.4 165.21 18.96 152.81 18.96 152.81 82.07 163.79 82.07 163.79 56.19 184.36 56.19 184.36 87.39 170.71 100.15 144.12 100.15 130.65 86.32 130.65 14 145.54 0 145.54 0"/><polygon class="cls-1" points="253.22 13 267.5 0.18 295.15 0.18 308.09 13.47 308.09 34.21 287.35 34.21 287.35 19.14 275.3 19.14 275.3 38.29 291.43 38.29 309.51 54.77 309.51 84.38 295.33 97.31 267.5 97.31 254.73 84.38 254.73 63.63 275.65 63.63 275.65 78.53 287.35 78.53 287.35 59.38 271.57 59.38 253.31 43.43 253.22 13 253.22 13"/><polygon class="cls-1" points="313.76 0 362.51 0 362.51 18.08 349.04 18.08 349.04 99.09 327.23 99.09 327.23 17.02 313.76 17.02 313.76 0 313.76 0"/><polygon class="cls-1" points="367.3 0.37 389.42 0.37 389.42 99.79 367.3 99.79 367.3 0.37 367.3 0.37"/><polygon class="cls-1" points="419.91 82.07 440.69 82.07 440.69 99.8 397.79 99.79 397.79 0.37 419.91 0.37 419.91 82.07 419.91 82.07"/><polygon class="cls-1" points="469.55 82.07 490.32 82.07 490.32 99.8 447.43 99.79 447.43 0.37 469.55 0.37 469.55 82.07 469.55 82.07"/><path class="cls-2" d="M219.37,24.64,214.49,62h9.75l-4.87-37.4ZM203.5.18h31.73L250.3,100H229l-2.48-20H212.37L209.71,99.8h-21.1L203.5.18Z"/><path class="cls-2" d="M519,18.79V82.56h11.62V18.79ZM539.43.18,551.3,12.76V87.39L537.3,100H510.35L497.41,86.32V13.47L512,.18Z"/></g></g></svg>