<svg xmlns="http://www.w3.org/2000/svg" viewBox="0 0 737.14 133.91"><defs><style>.cls-1,.cls-2{fill:#ed1c24;}.cls-2{fill-rule:evenodd;}</style></defs><g id="Capa_2" data-name="Capa 2"><g id="Layer_2" data-name="Layer 2"><polygon class="cls-1" points="0 0.71 56.65 0.71 56.65 25.24 29.51 25.24 29.51 48.94 53.21 48.94 53.21 73.71 29.51 73.71 29.51 110.09 56.77 110.09 56.77 133.67 0 133.67 0 0.71 0 0.71"/><polygon class="cls-1" points="64.94 0.47 94.22 0.47 94.22 109.97 121.83 109.97 121.83 133.44 64.94 133.44 64.94 0.47 64.94 0.47"/><polygon class="cls-1" points="194.6 0 231.34 0 249.11 17.77 249.11 50.01 220.91 50.01 220.91 25.36 204.31 25.36 204.31 109.74 219.01 109.74 219.01 75.13 246.5 75.13 246.5 116.85 228.25 133.91 192.7 133.91 174.68 115.42 174.68 18.72 194.6 0 194.6 0"/><polygon class="cls-1" points="338.57 17.38 357.67 0.23 394.64 0.23 411.94 18.01 411.94 45.74 384.21 45.74 384.21 25.59 368.1 25.59 368.1 51.19 389.67 51.19 413.84 73.24 413.84 112.82 394.88 130.12 357.67 130.12 340.6 112.82 340.6 85.09 368.57 85.09 368.57 105 384.21 105 384.21 79.4 363.12 79.4 338.7 58.07 338.57 17.38 338.57 17.38"/><polygon class="cls-1" points="419.53 0 484.71 0 484.71 24.18 466.7 24.18 466.7 132.49 437.54 132.49 437.54 22.75 419.53 22.75 419.53 0 419.53 0"/><polygon class="cls-1" points="491.12 0.49 520.69 0.49 520.69 133.43 491.12 133.43 491.12 0.49 491.12 0.49"/><polygon class="cls-1" points="561.46 109.74 589.24 109.74 589.24 133.44 531.89 133.43 531.89 0.49 561.46 0.49 561.46 109.74 561.46 109.74"/><polygon class="cls-1" points="627.83 109.74 655.61 109.74 655.61 133.44 598.25 133.43 598.25 0.49 627.83 0.49 627.83 109.74 627.83 109.74"/><path class="cls-2" d="M293.31,32.94,286.8,83h13l-6.52-50ZM272.1.24h42.43l20.15,133.43H306.23l-3.32-26.78H284l-3.55,26.55H252.19L272.1.24Z"/><path class="cls-2" d="M694,25.12v85.27h15.54V25.12ZM721.26.24l15.88,16.82v99.79l-18.72,16.82h-36l-17.3-18.25V18L684.52.24Z"/></g></g></svg>